<svg xmlns="http://www.w3.org/2000/svg" width="611" height="628" viewBox="0 0 611 628" fill="none"><g clip-path="url(#clip0_769_43216)"><path d="M548.11 187.385C548.11 187.385 420.977 59.2104 332.878 58.1264C244.779 57.0425 18.4324 220.851 1.62584 272.202C-15.1807 323.553 95.4173 582.069 173.487 622.175C251.556 662.28 562.748 483.974 598.394 429.236C634.041 374.633 587.145 249.846 548.11 187.385Z" fill="#FBA860"></path><path opacity="0.75" d="M548.11 187.385C548.11 187.385 420.977 59.2104 332.878 58.1264C244.779 57.0425 18.4324 220.851 1.62584 272.202C-15.1807 323.553 95.4173 582.069 173.487 622.175C251.556 662.28 562.748 483.974 598.394 429.236C634.041 374.633 587.145 249.846 548.11 187.385Z" fill="white"></path><path d="M325.966 562.559C334.05 562.559 340.604 556.008 340.604 547.926C340.604 539.844 334.05 533.293 325.966 533.293C317.882 533.293 311.328 539.844 311.328 547.926C311.328 556.008 317.882 562.559 325.966 562.559Z" stroke="#111111" stroke-miterlimit="10" stroke-linecap="round" stroke-linejoin="round"></path><path d="M451.88 567.436C451.88 564.726 449.711 562.559 447 562.559C444.29 562.559 442.121 564.726 442.121 567.436C442.121 570.146 444.29 572.314 447 572.314C449.711 572.314 451.88 570.146 451.88 567.436Z" stroke="#111111" stroke-miterlimit="10" stroke-linecap="round" stroke-linejoin="round"></path><path d="M402.951 499.013C402.951 493.593 398.614 489.258 393.192 489.258C387.771 489.258 383.434 493.593 383.434 499.013C383.434 504.433 387.771 508.768 393.192 508.768C398.614 508.768 402.951 504.433 402.951 499.013Z" stroke="#111111" stroke-miterlimit="10" stroke-linecap="round" stroke-linejoin="round"></path><path d="M129.166 369.482C133.882 369.482 137.705 365.66 137.705 360.946C137.705 356.232 133.882 352.41 129.166 352.41C124.45 352.41 120.627 356.232 120.627 360.946C120.627 365.66 124.45 369.482 129.166 369.482Z" stroke="#111111" stroke-miterlimit="10" stroke-linecap="round" stroke-linejoin="round"></path><path d="M114.528 209.468C114.528 206.081 111.818 203.371 108.429 203.371C105.041 203.371 102.33 206.081 102.33 209.468C102.33 212.855 105.041 215.565 108.429 215.565C111.818 215.565 114.528 212.855 114.528 209.468Z" stroke="#111111" stroke-miterlimit="10" stroke-linecap="round" stroke-linejoin="round"></path><path d="M511.788 165.434C515.83 165.434 519.107 162.158 519.107 158.117C519.107 154.076 515.83 150.801 511.788 150.801C507.746 150.801 504.469 154.076 504.469 158.117C504.469 162.158 507.746 165.434 511.788 165.434Z" stroke="#111111" stroke-miterlimit="10" stroke-linecap="round" stroke-linejoin="round"></path><path d="M419.189 67.5531C421.753 61.3256 418.781 54.1993 412.551 51.6361C406.322 49.0729 399.193 52.0434 396.629 58.2709C394.065 64.4985 397.036 71.6248 403.266 74.188C409.496 76.7512 416.624 73.7807 419.189 67.5531Z" stroke="#111111" stroke-miterlimit="10" stroke-linecap="round" stroke-linejoin="round"></path><path d="M103.415 464.869L86.7441 504.568C86.7441 504.568 90.5392 503.755 108.566 505.11C126.592 506.465 135.944 515.136 135.944 515.136L159.256 450.507C159.256 450.507 146.245 431.809 113.445 441.293L106.668 457.417" stroke="#111111" stroke-miterlimit="10" stroke-linecap="round" stroke-linejoin="round"></path><path d="M208.049 471.915L210.218 465.141C210.218 465.141 204.39 455.521 190.971 451.321C177.553 447.121 159.256 450.372 159.256 450.372" stroke="#111111" stroke-miterlimit="10" stroke-linecap="round" stroke-linejoin="round"></path><path d="M135.943 515.137C154.105 508.092 189.345 528.415 189.345 528.415L205.88 478.555" stroke="#111111" stroke-miterlimit="10" stroke-linecap="round" stroke-linejoin="round"></path><path d="M114.393 455.114C114.393 455.114 134.859 449.694 147.057 460.94" stroke="#111111" stroke-miterlimit="10" stroke-linecap="round" stroke-linejoin="round"></path><path d="M131.877 465.277C135.672 466.361 139.331 468.123 142.449 471.103" stroke="#111111" stroke-miterlimit="10" stroke-linecap="round" stroke-linejoin="round"></path><path d="M109.785 465.139C109.785 465.139 118.46 462.836 127.812 464.326" stroke="#111111" stroke-miterlimit="10" stroke-linecap="round" stroke-linejoin="round"></path><path d="M105.584 476.927C105.584 476.927 126.05 471.507 138.248 482.753" stroke="#111111" stroke-miterlimit="10" stroke-linecap="round" stroke-linejoin="round"></path><path d="M122.525 488.715C126.32 489.799 130.115 491.56 133.233 494.541" stroke="#111111" stroke-miterlimit="10" stroke-linecap="round" stroke-linejoin="round"></path><path d="M100.568 488.578C100.568 488.578 108.836 486.411 118.053 487.63" stroke="#111111" stroke-miterlimit="10" stroke-linecap="round" stroke-linejoin="round"></path><path d="M184.465 465.141C188.666 466.496 193.004 468.799 196.528 472.457" stroke="#111111" stroke-miterlimit="10" stroke-linecap="round" stroke-linejoin="round"></path><path d="M163.863 463.379C163.863 463.379 172.131 462.024 181.212 464.192" stroke="#111111" stroke-miterlimit="10" stroke-linecap="round" stroke-linejoin="round"></path><path d="M159.256 472.998C159.256 472.998 179.722 469.611 191.92 482.076" stroke="#111111" stroke-miterlimit="10" stroke-linecap="round" stroke-linejoin="round"></path><path d="M155.055 484.244C155.055 484.244 175.521 480.857 187.719 493.322" stroke="#111111" stroke-miterlimit="10" stroke-linecap="round" stroke-linejoin="round"></path><path d="M177.689 500.641C179.451 501.725 181.078 503.079 182.569 504.57" stroke="#111111" stroke-miterlimit="10" stroke-linecap="round" stroke-linejoin="round"></path><path d="M150.039 495.492C150.039 495.492 162.102 493.459 173.216 498.201" stroke="#111111" stroke-miterlimit="10" stroke-linecap="round" stroke-linejoin="round"></path><path d="M89.5912 504.566L87.2871 509.444C87.2871 509.444 119.138 506.328 134.047 517.438" stroke="#111111" stroke-miterlimit="10" stroke-linecap="round" stroke-linejoin="round"></path><path d="M137.705 517.709C137.705 517.709 168.201 516.625 190.971 533.696L211.708 472.184" stroke="#111111" stroke-miterlimit="10" stroke-linecap="round" stroke-linejoin="round"></path><path d="M90.1335 509.445L89.3203 513.375C89.3203 513.375 114.666 507.955 134.319 519.878C134.319 519.878 168.745 519.878 188.398 536.408" stroke="#111111" stroke-miterlimit="10" stroke-linecap="round" stroke-linejoin="round"></path><path d="M451.337 394.547L434.666 402.947L449.575 418.258L466.246 409.315L451.337 394.547Z" stroke="#111111" stroke-miterlimit="10" stroke-linecap="round" stroke-linejoin="round"></path><path d="M434.666 402.949L434.802 413.518L449.846 429.641L449.575 418.26L434.666 402.949Z" stroke="#111111" stroke-miterlimit="10" stroke-linecap="round" stroke-linejoin="round"></path><path d="M449.845 429.64L466.787 420.969L466.245 409.316L449.574 418.259L449.845 429.64Z" stroke="#111111" stroke-miterlimit="10" stroke-linecap="round" stroke-linejoin="round"></path><path d="M483.459 400.647L495.658 394.414V405.524L466.788 420.97L466.246 409.318L478.715 402.95" stroke="#111111" stroke-miterlimit="10" stroke-linecap="round" stroke-linejoin="round"></path><path d="M478.039 403.355L466.247 409.317L451.338 394.549L479.801 379.645L495.658 394.413L484.002 400.375" stroke="#111111" stroke-miterlimit="10" stroke-linecap="round" stroke-linejoin="round"></path><path d="M475.598 530.448L425.449 506.602L449.304 456.605L530.49 495.22L506.771 545.216L482.917 533.835" stroke="#111111" stroke-miterlimit="10" stroke-linecap="round" stroke-linejoin="round"></path><path d="M449.303 456.605L478.172 506.06L530.489 495.22" stroke="#111111" stroke-miterlimit="10" stroke-linecap="round" stroke-linejoin="round"></path><path d="M455.676 97.1487L418.674 168.01L417.59 185.624L434.396 177.224L470.72 105.549C471.533 104.059 470.991 102.162 469.5 101.213L460.419 95.7938C458.658 94.8454 456.624 95.3874 455.676 97.1487Z" stroke="#111111" stroke-miterlimit="10" stroke-linecap="round" stroke-linejoin="round"></path><path d="M450.932 106.902L465.57 115.709" stroke="#111111" stroke-miterlimit="10" stroke-linecap="round" stroke-linejoin="round"></path><path d="M418.674 167.875L434.396 177.088" stroke="#111111" stroke-miterlimit="10" stroke-linecap="round" stroke-linejoin="round"></path><path d="M454.184 108.938L423.146 169.773" stroke="#111111" stroke-miterlimit="10" stroke-linecap="round" stroke-linejoin="round"></path><path d="M436.429 159.34L428.703 173.566" stroke="#111111" stroke-miterlimit="10" stroke-linecap="round" stroke-linejoin="round"></path><path d="M460.962 113.273L438.869 155.005" stroke="#111111" stroke-miterlimit="10" stroke-linecap="round" stroke-linejoin="round"></path><path d="M418.133 179.258L423.825 182.374" stroke="#111111" stroke-miterlimit="10" stroke-linecap="round" stroke-linejoin="round"></path><path d="M206.828 0.675781H103.143C95.2816 0.675781 89.0469 7.04385 89.0469 14.7668V77.4991C89.0469 85.3576 95.4171 91.5901 103.143 91.5901H176.604L200.052 114.353L195.579 91.5901H206.693C214.554 91.5901 220.789 85.2221 220.789 77.4991V14.7668C220.924 7.04385 214.69 0.675781 206.828 0.675781Z" fill="white" stroke="#111111" stroke-miterlimit="10"></path><path d="M129.166 23.5745V6.36719H132.283V13.5482H135.807V6.36719H138.925V23.5745H135.807V15.7161H132.283V23.5745H129.166Z" fill="#111111"></path><path d="M141.635 23.5745V6.36719H148.818V8.53504H144.752V13.5482H148.005V15.7161H144.752V21.4067H148.954V23.5745H141.635Z" fill="#111111"></path><path d="M150.717 23.5745V6.36719H153.834V21.4067H158.036V23.5745H150.717Z" fill="#111111"></path><path d="M159.662 23.5745V6.36719H162.779V21.4067H166.981V23.5745H159.662Z" fill="#111111"></path><path d="M173.08 23.847C171.861 23.847 170.912 23.576 170.099 23.1695C169.421 22.763 168.879 22.0856 168.608 21.2726C168.337 20.4597 168.201 19.3758 168.201 18.2918V11.6528C168.201 10.4334 168.337 9.48493 168.608 8.67198C168.879 7.85904 169.421 7.18158 170.099 6.77511C170.776 6.36864 171.861 6.09766 173.08 6.09766C174.3 6.09766 175.249 6.36864 176.062 6.77511C176.74 7.18158 177.282 7.85904 177.553 8.67198C177.824 9.48493 178.095 10.4334 178.095 11.6528V18.1563C178.095 19.2403 177.96 20.3242 177.553 21.1371C177.282 21.9501 176.74 22.6275 176.062 23.034C175.249 23.576 174.3 23.847 173.08 23.847ZM173.08 21.5436C173.623 21.5436 174.029 21.4081 174.3 21.1371C174.571 20.8662 174.707 20.5952 174.842 20.1887C174.978 19.7822 174.978 19.3758 174.978 18.8338V10.9753C174.978 10.4334 174.978 10.0269 174.842 9.62042C174.707 9.21395 174.571 8.94296 174.3 8.67198C174.029 8.401 173.623 8.401 173.08 8.401C172.538 8.401 172.267 8.53649 171.996 8.67198C171.725 8.94296 171.59 9.21395 171.454 9.62042C171.319 10.0269 171.319 10.4334 171.319 10.9753V18.9693C171.319 19.3758 171.319 19.9177 171.454 20.3242C171.59 20.7307 171.725 21.0016 171.996 21.2726C172.132 21.4081 172.538 21.5436 173.08 21.5436Z" fill="#111111"></path><path d="M346.632 330.224C346.005 323.322 342.714 317.574 334.939 315.817C327.791 314.209 321.06 314.626 315.816 320.264C310.043 326.491 309.429 333.676 313.507 341.524C302.662 343.452 299.849 346.707 299.726 356.864C299.64 363.73 299.714 370.608 299.714 377.474C299.714 391.512 299.714 391.34 285.663 391.328C281.524 391.316 280.111 390.382 280.21 386.035C280.505 372.979 280.234 359.923 280.382 346.854C280.406 343.698 279.645 342.2 276.169 342.507C273.602 342.728 271.133 342.187 271.182 346.179C271.317 361.532 271.268 376.884 271.195 392.225C271.195 394.779 271.968 395.995 274.744 395.885C288.758 395.283 302.87 397.211 316.786 394.755C329.854 392.458 336.462 385.224 338.034 372.242C339.729 358.154 334.313 347.505 322.338 342.58C318.039 340.799 316.27 338.085 316.258 333.762C316.246 329.303 318.665 326.429 322.522 324.759C332.36 320.522 341.436 325.422 343.082 335.874C343.512 338.576 343.537 341.34 343.549 344.079C343.586 359.886 343.537 375.705 343.623 391.5C343.623 393.084 342.665 395.578 345.6 395.725C347.528 395.823 347.479 394.042 347.467 392.716C347.098 371.885 348.499 351.018 346.632 330.224ZM323.861 347.714C331.954 352.369 335.836 365.192 332.605 376.54C330.124 385.187 321.859 390.849 312.278 390.96C308.95 390.996 308.434 389.633 308.496 386.943C308.594 381.466 308.52 375.988 308.52 370.522C308.52 365.72 308.397 360.93 308.545 356.14C308.839 346.449 315.435 342.863 323.861 347.714Z" fill="#111111"></path><path d="M260.84 376.982C258.703 368.176 252.746 364.012 240.845 363.988C236.006 363.975 233.893 363.238 234.102 357.699C234.507 347.431 234.139 347.419 244.738 347.37C245.438 347.358 246.126 347.431 246.814 347.358C248.706 347.161 251.371 348.119 251.199 344.705C251.051 341.769 248.669 342.617 247.023 342.604C240.587 342.518 234.127 342.568 227.691 342.568H217.325C203.372 342.568 203.311 342.568 203.421 356.471C203.458 360.893 203.139 364.135 198.472 367.083C189.137 373.003 190.206 387.201 199.712 393.059C214.93 402.455 233.549 392.888 234.249 375.312C234.544 368.237 236.337 366.837 243.179 368.802C247.367 370.018 250.339 372.511 251.739 376.921C255.829 389.682 247.563 402.05 234.102 402.64C225.603 403.02 217.079 402.775 208.555 402.824C203.851 402.848 199.344 403.708 195.634 406.742C190.586 410.856 190.943 418.705 196.15 421.247C198.705 422.488 201.112 422.193 203.212 420.375C204.969 418.827 205.178 417.047 203.974 414.873C200.842 409.174 201.493 407.823 208.248 407.43C215.138 407.024 222.041 407.196 228.944 407.233C235.895 407.27 242.724 406.938 249.086 403.659C259.01 398.55 263.604 388.233 260.84 376.982ZM217.447 347.198C225.738 345.785 224.841 350.625 225.394 356.103C226.143 363.865 222.643 365.105 216.219 363.582C207.352 366.223 208.715 360.34 207.978 354.641C206.787 345.65 212.571 348.021 217.447 347.198ZM223.146 384.56C218.823 392.359 204.06 393.182 198.877 385.911C193.792 378.763 197.931 369.453 206.737 368.507C209.231 368.237 211.773 368.471 214.844 368.471C217.853 368.876 223.466 366.653 224.559 369.416C226.401 373.998 225.836 379.709 223.146 384.56Z" fill="#111111"></path><path d="M405.485 395.565C424.793 392.102 433.083 379.512 428.735 360.205C427.028 352.602 423.405 346.142 415.839 343.636C401.26 338.797 390.046 342.236 391.004 359.333C391.348 365.265 391.066 371.234 391.066 377.191C391.066 391.659 391.066 391.414 376.683 391.365C372.028 391.34 371.537 389.572 371.599 385.703C371.807 372.892 371.586 360.07 371.734 347.259C371.77 343.919 371.181 342.396 367.287 342.42C363.406 342.445 362.743 344.017 362.78 347.345C362.927 357.417 362.719 367.488 362.878 377.547C362.976 383.43 360.36 391.119 363.947 394.718C367.545 398.353 375.295 395.553 381.215 395.811C385.87 396.02 391.397 394.067 392.552 401.51C392.859 403.487 395.573 403.819 397.219 404.912C394.578 406.889 392.097 408.928 389.42 410.672C384.028 414.173 378.206 414.418 372.249 412.281C369.904 411.434 368.467 409.727 368.405 407.123C368.381 405.415 368.835 403.659 370.812 403.61C373.048 403.524 375.578 403.721 374.534 400.638C373.613 397.936 370.739 398.366 368.54 399.078C365.371 400.11 363.701 402.652 363.713 405.894C363.713 410.599 365.679 414.652 370.198 416.322C377.727 419.098 385.723 419.798 392.859 415.757C399.59 411.95 406.013 408.302 414.095 409.432C416.232 409.727 417.571 409.051 417.571 406.509C417.571 404.187 416.711 403.266 414.34 403.229C411.368 403.168 408.31 403.094 405.448 402.382C403.053 401.792 400.241 400.515 400.474 397.481C400.707 394.362 403.765 395.86 405.485 395.565ZM400.093 387.422C400.204 381.736 400.13 376.037 400.13 370.325C400.13 365.523 400.019 360.745 400.142 355.955C400.412 346.535 406.554 343.047 414.881 347.468C423.257 351.902 427.323 364.983 424.006 376.675C421.575 385.248 412.989 391.07 403.594 390.959C400.806 390.923 400.056 390.001 400.093 387.422Z" fill="#111111"></path><path d="M396.595 333.897C392.862 333.406 389.988 331.576 389.779 327.572C389.558 323.273 392.149 320.559 396.436 320.497C400.44 320.436 402.921 323.15 403.056 326.982C403.191 330.949 400.526 333.123 396.595 333.897Z" fill="#111111"></path><path d="M171.557 40.8484C171.275 37.7434 169.795 35.1578 166.297 34.3677C163.082 33.644 160.054 33.8318 157.695 36.3677C155.098 39.1689 154.822 42.4009 156.656 45.9314C151.778 46.7988 150.513 48.2629 150.457 52.832C150.419 55.9204 150.452 59.0144 150.452 62.1028C150.452 68.4178 150.452 68.3404 144.131 68.3349C142.269 68.3294 141.634 67.9095 141.678 65.9537C141.811 60.0807 141.689 54.2077 141.756 48.3292C141.767 46.9093 141.424 46.2352 139.861 46.3734C138.706 46.4728 137.595 46.2297 137.618 48.0253C137.678 54.9315 137.656 61.8376 137.623 68.7382C137.623 69.8874 137.971 70.4344 139.22 70.3846C145.524 70.1139 151.872 70.9813 158.132 69.8764C164.01 68.8432 166.982 65.589 167.69 59.7492C168.452 53.4121 166.016 48.622 160.629 46.4065C158.695 45.6054 157.899 44.3844 157.894 42.4396C157.888 40.4341 158.977 39.1412 160.712 38.3899C165.137 36.4838 169.22 38.6882 169.96 43.3899C170.154 44.6054 170.165 45.8485 170.17 47.0805C170.187 54.1911 170.165 61.3072 170.203 68.4122C170.203 69.125 169.773 70.2465 171.093 70.3128C171.96 70.357 171.938 69.5559 171.933 68.9592C171.767 59.589 172.397 50.2021 171.557 40.8484ZM161.314 48.7159C164.955 50.8099 166.701 56.5779 165.248 61.6829C164.132 65.5724 160.413 68.1194 156.104 68.1691C154.607 68.1857 154.375 67.5725 154.402 66.3625C154.446 63.8984 154.413 61.4343 154.413 58.9757C154.413 56.8154 154.358 54.6607 154.424 52.506C154.557 48.1469 157.524 46.5336 161.314 48.7159Z" fill="#111111"></path><path d="M132.967 61.8823C132.005 57.9209 129.326 56.048 123.972 56.0369C121.795 56.0314 120.845 55.6999 120.939 53.2082C121.121 48.5894 120.955 48.5838 125.723 48.5617C126.038 48.5562 126.348 48.5894 126.657 48.5562C127.508 48.4678 128.707 48.8988 128.63 47.3628C128.563 46.0424 127.491 46.4236 126.751 46.4181C123.856 46.3794 120.95 46.4015 118.055 46.4015H113.392C107.116 46.4015 107.088 46.4015 107.138 52.6557C107.154 54.6447 107.011 56.1032 104.911 57.4292C100.712 60.0922 101.193 66.479 105.469 69.1144C112.314 73.341 120.69 69.0371 121.005 61.1309C121.138 57.9486 121.944 57.3187 125.022 58.2027C126.906 58.7497 128.243 59.8712 128.873 61.8547C130.712 67.5951 126.994 73.1587 120.939 73.4239C117.116 73.5951 113.281 73.4846 109.447 73.5067C107.331 73.5178 105.303 73.9045 103.635 75.2692C101.364 77.12 101.524 80.6504 103.867 81.7941C105.016 82.3521 106.099 82.2195 107.044 81.4018C107.834 80.7057 107.928 79.9046 107.386 78.9267C105.977 76.3631 106.27 75.7554 109.309 75.5786C112.408 75.3962 115.513 75.4736 118.618 75.4902C121.746 75.5067 124.817 75.3576 127.679 73.8824C132.143 71.5841 134.21 66.9431 132.967 61.8823ZM113.447 48.4844C117.176 47.849 116.773 50.0258 117.022 52.4899C117.359 55.9817 115.784 56.5397 112.895 55.8546C108.906 57.0425 109.519 54.396 109.187 51.8325C108.651 47.7882 111.254 48.8546 113.447 48.4844ZM116.011 65.2912C114.066 68.7995 107.425 69.1697 105.093 65.8989C102.806 62.6834 104.668 58.4955 108.629 58.0701C109.751 57.9486 110.895 58.0535 112.276 58.0535C113.629 58.2359 116.154 57.2359 116.646 58.479C117.475 60.5398 117.221 63.1088 116.011 65.2912Z" fill="#111111"></path><path d="M198.031 70.241C206.716 68.683 210.446 63.02 208.49 54.3348C207.722 50.9149 206.092 48.0088 202.689 46.8817C196.131 44.7049 191.086 46.2518 191.517 53.9425C191.672 56.6111 191.545 59.2962 191.545 61.9758C191.545 68.4841 191.545 68.3736 185.075 68.3515C182.981 68.3405 182.76 67.5449 182.788 65.8045C182.882 60.042 182.782 54.274 182.849 48.5115C182.865 47.0088 182.6 46.3237 180.849 46.3347C179.103 46.3458 178.804 47.053 178.821 48.5502C178.887 53.0806 178.793 57.6111 178.865 62.136C178.909 64.7824 177.733 68.241 179.346 69.8598C180.965 71.4952 184.451 70.2355 187.114 70.3515C189.208 70.4454 191.694 69.567 192.213 72.9151C192.352 73.8046 193.573 73.9538 194.313 74.4455C193.125 75.335 192.009 76.2521 190.805 77.0367C188.379 78.6113 185.76 78.7218 183.081 77.7604C182.026 77.3792 181.379 76.6113 181.351 75.44C181.34 74.672 181.545 73.8819 182.434 73.8598C183.44 73.8212 184.578 73.9096 184.108 72.5228C183.694 71.3073 182.401 71.5007 181.412 71.8211C179.987 72.2852 179.235 73.4289 179.241 74.8875C179.241 77.0035 180.125 78.8267 182.158 79.5781C185.545 80.8268 189.142 81.1417 192.352 79.324C195.379 77.6113 198.269 75.9704 201.904 76.4787C202.865 76.6113 203.468 76.3074 203.468 75.1637C203.468 74.1195 203.081 73.7051 202.015 73.6886C200.678 73.6609 199.302 73.6278 198.015 73.3074C196.937 73.0422 195.672 72.4676 195.777 71.1029C195.882 69.6996 197.258 70.3736 198.031 70.241ZM195.606 66.578C195.655 64.02 195.622 61.4564 195.622 58.8873C195.622 56.7271 195.573 54.5779 195.628 52.4232C195.749 48.1856 198.512 46.6165 202.258 48.6055C206.026 50.6 207.855 56.484 206.363 61.7437C205.269 65.6001 201.407 68.2189 197.18 68.1692C195.926 68.1526 195.589 67.7382 195.606 66.578Z" fill="#111111"></path><path d="M194.035 42.5008C192.356 42.2798 191.063 41.4566 190.969 39.6555C190.869 37.7217 192.035 36.5007 193.963 36.4731C195.764 36.4455 196.88 37.6665 196.941 39.3903C197.002 41.1748 195.803 42.1527 194.035 42.5008Z" fill="#111111"></path><path d="M211.444 221.2H196.724V208.4H240.244V221.2H225.524V298H211.444V221.2ZM252.066 208.4H271.138L285.73 298H271.65L269.09 280.208V280.464H253.09L250.53 298H237.474L252.066 208.4ZM267.426 268.304L261.154 224.016H260.898L254.753 268.304H267.426ZM292.561 208.4H312.657L321.617 272.528H321.873L330.833 208.4H350.929V298H337.617V230.16H337.361L327.121 298H315.345L305.105 230.16H304.849V298H292.561V208.4ZM361.436 208.4H375.516V298H361.436V208.4ZM386.061 208.4H400.141V285.2H423.309V298H386.061V208.4Z" fill="black"></path><path d="M211.444 221.2H212.444V220.2H211.444V221.2ZM196.724 221.2H195.724V222.2H196.724V221.2ZM196.724 208.4V207.4H195.724V208.4H196.724ZM240.244 208.4H241.244V207.4H240.244V208.4ZM240.244 221.2V222.2H241.244V221.2H240.244ZM225.524 221.2V220.2H224.524V221.2H225.524ZM225.524 298V299H226.524V298H225.524ZM211.444 298H210.444V299H211.444V298ZM211.444 220.2H196.724V222.2H211.444V220.2ZM197.724 221.2V208.4H195.724V221.2H197.724ZM196.724 209.4H240.244V207.4H196.724V209.4ZM239.244 208.4V221.2H241.244V208.4H239.244ZM240.244 220.2H225.524V222.2H240.244V220.2ZM224.524 221.2V298H226.524V221.2H224.524ZM225.524 297H211.444V299H225.524V297ZM212.444 298V221.2H210.444V298H212.444ZM252.065 208.4V207.4H251.215L251.079 208.239L252.065 208.4ZM271.137 208.4L272.124 208.239L271.988 207.4H271.137V208.4ZM285.73 298V299H286.906L286.716 297.839L285.73 298ZM271.65 298L270.66 298.142L270.783 299H271.65V298ZM269.09 280.208L270.079 280.066L268.09 280.208H269.09ZM269.09 280.464V281.464H270.09V280.464H269.09ZM253.09 280.464V279.464H252.225L252.1 280.32L253.09 280.464ZM250.53 298V299H251.394L251.519 298.144L250.53 298ZM237.473 298L236.487 297.839L236.297 299H237.473V298ZM267.425 268.304V269.304H268.577L268.416 268.164L267.425 268.304ZM261.154 224.016L262.144 223.876L262.022 223.016H261.154V224.016ZM260.897 224.016V223.016H260.027L259.907 223.879L260.897 224.016ZM254.754 268.304L253.763 268.167L253.605 269.304H254.754V268.304ZM252.065 209.4H271.137V207.4H252.065V209.4ZM270.151 208.561L284.743 298.161L286.716 297.839L272.124 208.239L270.151 208.561ZM285.73 297H271.65V299H285.73V297ZM272.639 297.858L270.079 280.066L268.1 280.35L270.66 298.142L272.639 297.858ZM268.09 280.208V280.464H270.09V280.208H268.09ZM269.09 279.464H253.09V281.464H269.09V279.464ZM252.1 280.32L249.54 297.856L251.519 298.144L254.079 280.608L252.1 280.32ZM250.53 297H237.473V299H250.53V297ZM238.46 298.161L253.052 208.561L251.079 208.239L236.487 297.839L238.46 298.161ZM268.416 268.164L262.144 223.876L260.163 224.156L266.435 268.444L268.416 268.164ZM261.154 223.016H260.897V225.016H261.154V223.016ZM259.907 223.879L253.763 268.167L255.744 268.441L261.888 224.153L259.907 223.879ZM254.754 269.304H267.425V267.304H254.754V269.304ZM292.561 208.4V207.4H291.561V208.4H292.561ZM312.657 208.4L313.647 208.262L313.526 207.4H312.657V208.4ZM321.617 272.528L320.626 272.666L320.747 273.528H321.617V272.528ZM321.872 272.528V273.528H322.742L322.863 272.666L321.872 272.528ZM330.833 208.4V207.4H329.963L329.842 208.262L330.833 208.4ZM350.928 208.4H351.928V207.4H350.928V208.4ZM350.928 298V299H351.928V298H350.928ZM337.617 298H336.617V299H337.617V298ZM337.617 230.16H338.617V229.16H337.617V230.16ZM337.361 230.16V229.16H336.5L336.372 230.011L337.361 230.16ZM327.12 298V299H327.981L328.109 298.149L327.12 298ZM315.344 298L314.356 298.149L314.484 299H315.344V298ZM305.104 230.16L306.093 230.011L305.965 229.16H305.104V230.16ZM304.849 230.16V229.16H303.849V230.16H304.849ZM304.849 298V299H305.849V298H304.849ZM292.561 298H291.561V299H292.561V298ZM292.561 209.4H312.657V207.4H292.561V209.4ZM311.666 208.538L320.626 272.666L322.607 272.39L313.647 208.262L311.666 208.538ZM321.617 273.528H321.872V271.528H321.617V273.528ZM322.863 272.666L331.823 208.538L329.842 208.262L320.882 272.39L322.863 272.666ZM330.833 209.4H350.928V207.4H330.833V209.4ZM349.928 208.4V298H351.928V208.4H349.928ZM350.928 297H337.617V299H350.928V297ZM338.617 298V230.16H336.617V298H338.617ZM337.617 229.16H337.361V231.16H337.617V229.16ZM336.372 230.011L326.132 297.851L328.109 298.149L338.349 230.309L336.372 230.011ZM327.12 297H315.344V299H327.12V297ZM316.333 297.851L306.093 230.011L304.116 230.309L314.356 298.149L316.333 297.851ZM305.104 229.16H304.849V231.16H305.104V229.16ZM303.849 230.16V298H305.849V230.16H303.849ZM304.849 297H292.561V299H304.849V297ZM293.561 298V208.4H291.561V298H293.561ZM361.436 208.4V207.4H360.436V208.4H361.436ZM375.516 208.4H376.516V207.4H375.516V208.4ZM375.516 298V299H376.516V298H375.516ZM361.436 298H360.436V299H361.436V298ZM361.436 209.4H375.516V207.4H361.436V209.4ZM374.516 208.4V298H376.516V208.4H374.516ZM375.516 297H361.436V299H375.516V297ZM362.436 298V208.4H360.436V298H362.436ZM386.061 208.4V207.4H385.061V208.4H386.061ZM400.141 208.4H401.141V207.4H400.141V208.4ZM400.141 285.2H399.141V286.2H400.141V285.2ZM423.309 285.2H424.309V284.2H423.309V285.2ZM423.309 298V299H424.309V298H423.309ZM386.061 298H385.061V299H386.061V298ZM386.061 209.4H400.141V207.4H386.061V209.4ZM399.141 208.4V285.2H401.141V208.4H399.141ZM400.141 286.2H423.309V284.2H400.141V286.2ZM422.309 285.2V298H424.309V285.2H422.309ZM423.309 297H386.061V299H423.309V297ZM387.061 298V208.4H385.061V298H387.061Z" fill="black"></path><path d="M216.444 216.2H201.724V203.4H245.244V216.2H230.524V293H216.444V216.2ZM257.066 203.4H276.138L290.73 293H276.65L274.09 275.208V275.464H258.09L255.53 293H242.474L257.066 203.4ZM272.426 263.304L266.154 219.016H265.898L259.753 263.304H272.426ZM297.561 203.4H317.657L326.617 267.528H326.873L335.833 203.4H355.929V293H342.617V225.16H342.361L332.121 293H320.345L310.105 225.16H309.849V293H297.561V203.4ZM366.436 203.4H380.516V293H366.436V203.4ZM391.061 203.4H405.141V280.2H428.309V293H391.061V203.4Z" fill="#F98925"></path><path d="M216.444 216.2H217.444V215.2H216.444V216.2ZM201.724 216.2H200.724V217.2H201.724V216.2ZM201.724 203.4V202.4H200.724V203.4H201.724ZM245.244 203.4H246.244V202.4H245.244V203.4ZM245.244 216.2V217.2H246.244V216.2H245.244ZM230.524 216.2V215.2H229.524V216.2H230.524ZM230.524 293V294H231.524V293H230.524ZM216.444 293H215.444V294H216.444V293ZM216.444 215.2H201.724V217.2H216.444V215.2ZM202.724 216.2V203.4H200.724V216.2H202.724ZM201.724 204.4H245.244V202.4H201.724V204.4ZM244.244 203.4V216.2H246.244V203.4H244.244ZM245.244 215.2H230.524V217.2H245.244V215.2ZM229.524 216.2V293H231.524V216.2H229.524ZM230.524 292H216.444V294H230.524V292ZM217.444 293V216.2H215.444V293H217.444ZM257.065 203.4V202.4H256.215L256.079 203.239L257.065 203.4ZM276.137 203.4L277.124 203.239L276.988 202.4H276.137V203.4ZM290.73 293V294H291.906L291.716 292.839L290.73 293ZM276.65 293L275.66 293.142L275.783 294H276.65V293ZM274.09 275.208L275.079 275.066L273.09 275.208H274.09ZM274.09 275.464V276.464H275.09V275.464H274.09ZM258.09 275.464V274.464H257.225L257.1 275.32L258.09 275.464ZM255.53 293V294H256.394L256.519 293.144L255.53 293ZM242.473 293L241.487 292.839L241.297 294H242.473V293ZM272.425 263.304V264.304H273.577L273.416 263.164L272.425 263.304ZM266.154 219.016L267.144 218.876L267.022 218.016H266.154V219.016ZM265.897 219.016V218.016H265.027L264.907 218.879L265.897 219.016ZM259.754 263.304L258.763 263.167L258.605 264.304H259.754V263.304ZM257.065 204.4H276.137V202.4H257.065V204.4ZM275.151 203.561L289.743 293.161L291.716 292.839L277.124 203.239L275.151 203.561ZM290.73 292H276.65V294H290.73V292ZM277.639 292.858L275.079 275.066L273.1 275.35L275.66 293.142L277.639 292.858ZM273.09 275.208V275.464H275.09V275.208H273.09ZM274.09 274.464H258.09V276.464H274.09V274.464ZM257.1 275.32L254.54 292.856L256.519 293.144L259.079 275.608L257.1 275.32ZM255.53 292H242.473V294H255.53V292ZM243.46 293.161L258.052 203.561L256.079 203.239L241.487 292.839L243.46 293.161ZM273.416 263.164L267.144 218.876L265.163 219.156L271.435 263.444L273.416 263.164ZM266.154 218.016H265.897V220.016H266.154V218.016ZM264.907 218.879L258.763 263.167L260.744 263.441L266.888 219.153L264.907 218.879ZM259.754 264.304H272.425V262.304H259.754V264.304ZM297.561 203.4V202.4H296.561V203.4H297.561ZM317.657 203.4L318.647 203.262L318.526 202.4H317.657V203.4ZM326.617 267.528L325.626 267.666L325.747 268.528H326.617V267.528ZM326.872 267.528V268.528H327.742L327.863 267.666L326.872 267.528ZM335.833 203.4V202.4H334.963L334.842 203.262L335.833 203.4ZM355.928 203.4H356.928V202.4H355.928V203.4ZM355.928 293V294H356.928V293H355.928ZM342.617 293H341.617V294H342.617V293ZM342.617 225.16H343.617V224.16H342.617V225.16ZM342.361 225.16V224.16H341.5L341.372 225.011L342.361 225.16ZM332.12 293V294H332.981L333.109 293.149L332.12 293ZM320.344 293L319.356 293.149L319.484 294H320.344V293ZM310.104 225.16L311.093 225.011L310.965 224.16H310.104V225.16ZM309.849 225.16V224.16H308.849V225.16H309.849ZM309.849 293V294H310.849V293H309.849ZM297.561 293H296.561V294H297.561V293ZM297.561 204.4H317.657V202.4H297.561V204.4ZM316.666 203.538L325.626 267.666L327.607 267.39L318.647 203.262L316.666 203.538ZM326.617 268.528H326.872V266.528H326.617V268.528ZM327.863 267.666L336.823 203.538L334.842 203.262L325.882 267.39L327.863 267.666ZM335.833 204.4H355.928V202.4H335.833V204.4ZM354.928 203.4V293H356.928V203.4H354.928ZM355.928 292H342.617V294H355.928V292ZM343.617 293V225.16H341.617V293H343.617ZM342.617 224.16H342.361V226.16H342.617V224.16ZM341.372 225.011L331.132 292.851L333.109 293.149L343.349 225.309L341.372 225.011ZM332.12 292H320.344V294H332.12V292ZM321.333 292.851L311.093 225.011L309.116 225.309L319.356 293.149L321.333 292.851ZM310.104 224.16H309.849V226.16H310.104V224.16ZM308.849 225.16V293H310.849V225.16H308.849ZM309.849 292H297.561V294H309.849V292ZM298.561 293V203.4H296.561V293H298.561ZM366.436 203.4V202.4H365.436V203.4H366.436ZM380.516 203.4H381.516V202.4H380.516V203.4ZM380.516 293V294H381.516V293H380.516ZM366.436 293H365.436V294H366.436V293ZM366.436 204.4H380.516V202.4H366.436V204.4ZM379.516 203.4V293H381.516V203.4H379.516ZM380.516 292H366.436V294H380.516V292ZM367.436 293V203.4H365.436V293H367.436ZM391.061 203.4V202.4H390.061V203.4H391.061ZM405.141 203.4H406.141V202.4H405.141V203.4ZM405.141 280.2H404.141V281.2H405.141V280.2ZM428.309 280.2H429.309V279.2H428.309V280.2ZM428.309 293V294H429.309V293H428.309ZM391.061 293H390.061V294H391.061V293ZM391.061 204.4H405.141V202.4H391.061V204.4ZM404.141 203.4V280.2H406.141V203.4H404.141ZM405.141 281.2H428.309V279.2H405.141V281.2ZM427.309 280.2V293H429.309V280.2H427.309ZM428.309 292H391.061V294H428.309V292ZM392.061 293V203.4H390.061V293H392.061Z" fill="black"></path></g><defs><clipPath id="clip0_769_43216"><rect width="611" height="628" fill="white"></rect></clipPath></defs></svg>